<svg xmlns="http://www.w3.org/2000/svg" width="600" height="600" viewBox="0 0 600 600">
<defs>
<linearGradient id="g" x1="0" y1="0" x2="1" y2="1">
<stop offset="0" stop-color="#ffd166"/><stop offset="0.55" stop-color="#ef476f"/><stop offset="1" stop-color="#26123a"/>
</linearGradient>
<radialGradient id="glow" cx="0.5" cy="0.4" r="0.7">
<stop offset="0" stop-color="#ffffff" stop-opacity="0.28"/><stop offset="1" stop-color="#ffffff" stop-opacity="0"/>
</radialGradient>
<filter id="b"><feGaussianBlur stdDeviation="26"/></filter>
</defs>
<rect width="600" height="600" fill="url(#g)"/><line x1="0" y1="0" x2="0" y2="600" stroke="#ffffff" stroke-opacity="0.05"/><line x1="0" y1="0" x2="600" y2="0" stroke="#ffffff" stroke-opacity="0.05"/><line x1="46" y1="0" x2="46" y2="600" stroke="#ffffff" stroke-opacity="0.05"/><line x1="0" y1="46" x2="600" y2="46" stroke="#ffffff" stroke-opacity="0.05"/><line x1="92" y1="0" x2="92" y2="600" stroke="#ffffff" stroke-opacity="0.05"/><line x1="0" y1="92" x2="600" y2="92" stroke="#ffffff" stroke-opacity="0.05"/><line x1="138" y1="0" x2="138" y2="600" stroke="#ffffff" stroke-opacity="0.05"/><line x1="0" y1="138" x2="600" y2="138" stroke="#ffffff" stroke-opacity="0.05"/><line x1="184" y1="0" x2="184" y2="600" stroke="#ffffff" stroke-opacity="0.05"/><line x1="0" y1="184" x2="600" y2="184" stroke="#ffffff" stroke-opacity="0.05"/><line x1="230" y1="0" x2="230" y2="600" stroke="#ffffff" stroke-opacity="0.05"/><line x1="0" y1="230" x2="600" y2="230" stroke="#ffffff" stroke-opacity="0.05"/><line x1="276" y1="0" x2="276" y2="600" stroke="#ffffff" stroke-opacity="0.05"/><line x1="0" y1="276" x2="600" y2="276" stroke="#ffffff" stroke-opacity="0.05"/><line x1="322" y1="0" x2="322" y2="600" stroke="#ffffff" stroke-opacity="0.05"/><line x1="0" y1="322" x2="600" y2="322" stroke="#ffffff" stroke-opacity="0.05"/><line x1="368" y1="0" x2="368" y2="600" stroke="#ffffff" stroke-opacity="0.05"/><line x1="0" y1="368" x2="600" y2="368" stroke="#ffffff" stroke-opacity="0.05"/><line x1="414" y1="0" x2="414" y2="600" stroke="#ffffff" stroke-opacity="0.05"/><line x1="0" y1="414" x2="600" y2="414" stroke="#ffffff" stroke-opacity="0.05"/><line x1="460" y1="0" x2="460" y2="600" stroke="#ffffff" stroke-opacity="0.05"/><line x1="0" y1="460" x2="600" y2="460" stroke="#ffffff" stroke-opacity="0.05"/><line x1="506" y1="0" x2="506" y2="600" stroke="#ffffff" stroke-opacity="0.05"/><line x1="0" y1="506" x2="600" y2="506" stroke="#ffffff" stroke-opacity="0.05"/><line x1="552" y1="0" x2="552" y2="600" stroke="#ffffff" stroke-opacity="0.05"/><line x1="0" y1="552" x2="600" y2="552" stroke="#ffffff" stroke-opacity="0.05"/><line x1="598" y1="0" x2="598" y2="600" stroke="#ffffff" stroke-opacity="0.05"/><line x1="0" y1="598" x2="600" y2="598" stroke="#ffffff" stroke-opacity="0.05"/><circle cx="336" cy="240" r="90" fill="#ffffff" fill-opacity="0.14" filter="url(#b)"/><rect width="600" height="600" fill="url(#glow)"/></svg>