<svg xmlns="http://www.w3.org/2000/svg" width="600" height="600" viewBox="0 0 600 600">
<defs>
<linearGradient id="g" x1="0" y1="0" x2="1" y2="1">
<stop offset="0" stop-color="#00c2a8"/><stop offset="0.55" stop-color="#0575e6"/><stop offset="1" stop-color="#04122e"/>
</linearGradient>
<radialGradient id="glow" cx="0.5" cy="0.4" r="0.7">
<stop offset="0" stop-color="#ffffff" stop-opacity="0.28"/><stop offset="1" stop-color="#ffffff" stop-opacity="0"/>
</radialGradient>
<filter id="b"><feGaussianBlur stdDeviation="26"/></filter>
</defs>
<rect width="600" height="600" fill="url(#g)"/><path d="M0 126 Q150 66 300 126 T600 126" stroke="#ffffff" stroke-opacity="0.06" fill="none" stroke-width="3"/><path d="M0 201 Q150 141 300 201 T600 201" stroke="#ffffff" stroke-opacity="0.09" fill="none" stroke-width="4"/><path d="M0 265 Q150 205 300 265 T600 265" stroke="#ffffff" stroke-opacity="0.12" fill="none" stroke-width="5"/><path d="M0 332 Q150 272 300 332 T600 332" stroke="#ffffff" stroke-opacity="0.15" fill="none" stroke-width="6"/><path d="M0 401 Q150 341 300 401 T600 401" stroke="#ffffff" stroke-opacity="0.18" fill="none" stroke-width="7"/><path d="M0 478 Q150 418 300 478 T600 478" stroke="#ffffff" stroke-opacity="0.21" fill="none" stroke-width="8"/><rect width="600" height="600" fill="url(#glow)"/></svg>