<svg xmlns="http://www.w3.org/2000/svg" width="600" height="600" viewBox="0 0 600 600">
<defs>
<linearGradient id="g" x1="0" y1="0" x2="1" y2="1">
<stop offset="0" stop-color="#ff7b00"/><stop offset="0.55" stop-color="#ff2e63"/><stop offset="1" stop-color="#2a0a2a"/>
</linearGradient>
<radialGradient id="glow" cx="0.5" cy="0.4" r="0.7">
<stop offset="0" stop-color="#ffffff" stop-opacity="0.28"/><stop offset="1" stop-color="#ffffff" stop-opacity="0"/>
</radialGradient>
<filter id="b"><feGaussianBlur stdDeviation="26"/></filter>
</defs>
<rect width="600" height="600" fill="url(#g)"/><circle cx="300" cy="340" r="150" fill="#ffffff" fill-opacity="0.16"/><rect x="120" y="300" width="360" height="12" fill="#ff7b00" fill-opacity="0.5" rx="3"/><rect x="120" y="322" width="360" height="11" fill="#ff7b00" fill-opacity="0.5" rx="3"/><rect x="120" y="344" width="360" height="10" fill="#ff7b00" fill-opacity="0.5" rx="3"/><rect x="120" y="366" width="360" height="9" fill="#ff7b00" fill-opacity="0.5" rx="3"/><rect x="120" y="388" width="360" height="8" fill="#ff7b00" fill-opacity="0.5" rx="3"/><rect x="120" y="410" width="360" height="7" fill="#ff7b00" fill-opacity="0.5" rx="3"/><rect x="120" y="432" width="360" height="6" fill="#ff7b00" fill-opacity="0.5" rx="3"/><rect x="120" y="454" width="360" height="5" fill="#ff7b00" fill-opacity="0.5" rx="3"/><rect x="120" y="476" width="360" height="4" fill="#ff7b00" fill-opacity="0.5" rx="3"/><rect width="600" height="600" fill="url(#glow)"/></svg>